
<svg xmlns="http://www.w3.org/2000/svg" viewBox="0 0 370.09 488.64">
  
  <path class="cls-1" d="M185.59,399.44s9.66-15.69,21.27-34.56l-153.92-94.72c-11.61,18.84-21.28,34.56-21.28,34.56,0,0,27.8,60.41-9.91,121.66l29.84,18.38,29.84,18.38c37.69-61.28,104.15-63.69,104.15-63.69Z"/>
  <path class="cls-1" d="M367,104.69c6.03-9.84,2.97-22.72-6.86-28.78L241.83,3.11c-3.42-2.11-7.2-3.11-10.94-3.11-7.02,0-13.88,3.53-17.83,9.95L60.66,257.59l153.94,94.72,152.4-247.62ZM105.81,246.84L234.78,37.31l98.02,60.31-128.95,209.53-98.03-60.31Z"/>
  <polygon class="cls-1" points="0 488.64 51.66 488.64 64.95 467.03 25.69 442.88 0 488.64"/>
</svg>